<svg id="visual" viewBox="0 0 960 540" width="960" height="540" xmlns="http://www.w3.org/2000/svg" xmlns:xlink="http://www.w3.org/1999/xlink" version="1.1"><rect x="0" y="0" width="960" height="540" fill="#181818"></rect><path d="M0 364L107 364L107 405L213 405L213 399L320 399L320 385L427 385L427 359L533 359L533 336L640 336L640 358L747 358L747 337L853 337L853 339L960 339L960 360L960 541L960 541L853 541L853 541L747 541L747 541L640 541L640 541L533 541L533 541L427 541L427 541L320 541L320 541L213 541L213 541L107 541L107 541L0 541Z" fill="#3ab9d5"></path><path d="M0 422L107 422L107 429L213 429L213 428L320 428L320 408L427 408L427 366L533 366L533 382L640 382L640 421L747 421L747 376L853 376L853 414L960 414L960 410L960 541L960 541L853 541L853 541L747 541L747 541L640 541L640 541L533 541L533 541L427 541L427 541L320 541L320 541L213 541L213 541L107 541L107 541L0 541Z" fill="#009bc8"></path><path d="M0 395L107 395L107 397L213 397L213 431L320 431L320 400L427 400L427 393L533 393L533 447L640 447L640 399L747 399L747 399L853 399L853 410L960 410L960 418L960 541L960 541L853 541L853 541L747 541L747 541L640 541L640 541L533 541L533 541L427 541L427 541L320 541L320 541L213 541L213 541L107 541L107 541L0 541Z" fill="#007cb7"></path><path d="M0 471L107 471L107 440L213 440L213 461L320 461L320 427L427 427L427 469L533 469L533 436L640 436L640 438L747 438L747 461L853 461L853 434L960 434L960 471L960 541L960 541L853 541L853 541L747 541L747 541L640 541L640 541L533 541L533 541L427 541L427 541L320 541L320 541L213 541L213 541L107 541L107 541L0 541Z" fill="#005da2"></path><path d="M0 460L107 460L107 472L213 472L213 456L320 456L320 465L427 465L427 476L533 476L533 477L640 477L640 467L747 467L747 490L853 490L853 494L960 494L960 471L960 541L960 541L853 541L853 541L747 541L747 541L640 541L640 541L533 541L533 541L427 541L427 541L320 541L320 541L213 541L213 541L107 541L107 541L0 541Z" fill="#003e89"></path><path d="M0 529L107 529L107 488L213 488L213 501L320 501L320 517L427 517L427 518L533 518L533 509L640 509L640 516L747 516L747 531L853 531L853 531L960 531L960 518L960 541L960 541L853 541L853 541L747 541L747 541L640 541L640 541L533 541L533 541L427 541L427 541L320 541L320 541L213 541L213 541L107 541L107 541L0 541Z" fill="#021f6d"></path></svg>