<svg id="visual" viewBox="0 0 960 540" width="960" height="540" xmlns="http://www.w3.org/2000/svg" xmlns:xlink="http://www.w3.org/1999/xlink" version="1.1"><rect x="0" y="0" width="960" height="540" fill="#181818"></rect><path d="M596 540L600 540L600 486L546 486L546 432L535 432L535 378L476 378L476 324L505 324L505 270L602 270L602 216L601 216L601 162L564 162L564 108L473 108L473 54L569 54L569 0L960 0L960 54L960 54L960 108L960 108L960 162L960 162L960 216L960 216L960 270L960 270L960 324L960 324L960 378L960 378L960 432L960 432L960 486L960 486L960 540L960 540Z" fill="#3ab9d5"></path><path d="M631 540L577 540L577 486L593 486L593 432L643 432L643 378L553 378L553 324L552 324L552 270L671 270L671 216L619 216L619 162L637 162L637 108L673 108L673 54L518 54L518 0L960 0L960 54L960 54L960 108L960 108L960 162L960 162L960 216L960 216L960 270L960 270L960 324L960 324L960 378L960 378L960 432L960 432L960 486L960 486L960 540L960 540Z" fill="#0aa0cb"></path><path d="M656 540L708 540L708 486L731 486L731 432L713 432L713 378L608 378L608 324L682 324L682 270L629 270L629 216L708 216L708 162L723 162L723 108L723 108L723 54L631 54L631 0L960 0L960 54L960 54L960 108L960 108L960 162L960 162L960 216L960 216L960 270L960 270L960 324L960 324L960 378L960 378L960 432L960 432L960 486L960 486L960 540L960 540Z" fill="#0087be"></path><path d="M712 540L692 540L692 486L765 486L765 432L783 432L783 378L745 378L745 324L667 324L667 270L773 270L773 216L694 216L694 162L672 162L672 108L784 108L784 54L687 54L687 0L960 0L960 54L960 54L960 108L960 108L960 162L960 162L960 216L960 216L960 270L960 270L960 324L960 324L960 378L960 378L960 432L960 432L960 486L960 486L960 540L960 540Z" fill="#006dad"></path><path d="M816 540L824 540L824 486L770 486L770 432L811 432L811 378L824 378L824 324L761 324L761 270L732 270L732 216L757 216L757 162L790 162L790 108L818 108L818 54L759 54L759 0L960 0L960 54L960 54L960 108L960 108L960 162L960 162L960 216L960 216L960 270L960 270L960 324L960 324L960 378L960 378L960 432L960 432L960 486L960 486L960 540L960 540Z" fill="#00539a"></path><path d="M855 540L842 540L842 486L856 486L856 432L864 432L864 378L877 378L877 324L820 324L820 270L792 270L792 216L871 216L871 162L802 162L802 108L872 108L872 54L855 54L855 0L960 0L960 54L960 54L960 108L960 108L960 162L960 162L960 216L960 216L960 270L960 270L960 324L960 324L960 378L960 378L960 432L960 432L960 486L960 486L960 540L960 540Z" fill="#003985"></path><path d="M922 540L910 540L910 486L906 486L906 432L891 432L891 378L847 378L847 324L853 324L853 270L862 270L862 216L905 216L905 162L906 162L906 108L869 108L869 54L901 54L901 0L960 0L960 54L960 54L960 108L960 108L960 162L960 162L960 216L960 216L960 270L960 270L960 324L960 324L960 378L960 378L960 432L960 432L960 486L960 486L960 540L960 540Z" fill="#021f6d"></path></svg>